<svg version="1.1" xmlns="http://www.w3.org/2000/svg" viewBox="0 0 1297.5072021484375 306.39074509755613" width="1297.5072021484375" height="306.39074509755613">
  <!-- svg-source:excalidraw -->
  
  <defs>
    <style class="style-fonts">
      @font-face {
        font-family: "Virgil";
        src: url("https://file%2B.vscode-resource.vscode-cdn.net/Users/pezh/.vscode/extensions/pomdtr.excalidraw-editor-3.7.4/public//dist/excalidraw-assets/Virgil.woff2");
      }
      @font-face {
        font-family: "Cascadia";
        src: url("https://file%2B.vscode-resource.vscode-cdn.net/Users/pezh/.vscode/extensions/pomdtr.excalidraw-editor-3.7.4/public//dist/excalidraw-assets/Cascadia.woff2");
      }
      @font-face {
        font-family: "Assistant";
        src: url("https://file%2B.vscode-resource.vscode-cdn.net/Users/pezh/.vscode/extensions/pomdtr.excalidraw-editor-3.7.4/public//dist/excalidraw-assets/Assistant-Regular.woff2");
      }
    </style>
    
  </defs>
  <rect x="0" y="0" width="1297.5072021484375" height="306.39074509755613" fill="#ffffff"></rect><g transform="translate(190.29521092914547 158.68906536828342) rotate(0 24.6099853515625 12.5)"><text x="0" y="0" font-family="Virgil, Segoe UI Emoji" font-size="20px" fill="#1e1e1e" text-anchor="start" style="white-space: pre;" direction="ltr" dominant-baseline="text-before-edge">Read</text></g><g transform="translate(274.9453125 91.34387009755613) rotate(0 72.89995574951172 37.5)"><text x="0" y="0" font-family="Virgil, Segoe UI Emoji" font-size="20px" fill="#1e1e1e" text-anchor="start" style="white-space: pre;" direction="ltr" dominant-baseline="text-before-edge">Go channel of </text><text x="0" y="25" font-family="Virgil, Segoe UI Emoji" font-size="20px" fill="#1e1e1e" text-anchor="start" style="white-space: pre;" direction="ltr" dominant-baseline="text-before-edge">journal log </text><text x="0" y="50" font-family="Virgil, Segoe UI Emoji" font-size="20px" fill="#1e1e1e" text-anchor="start" style="white-space: pre;" direction="ltr" dominant-baseline="text-before-edge">entries</text></g><g stroke-linecap="round" transform="translate(459.66796875 60.375120097556135) rotate(0 154.8436213561131 118.0078125)"><path d="M32 0 C88.45 0.41, 142.24 0.79, 277.69 0 M32 0 C99.38 -0.06, 166.47 0.24, 277.69 0 M277.69 0 C300.23 -1.91, 310.17 10.97, 309.69 32 M277.69 0 C298.73 1.35, 311.27 11.21, 309.69 32 M309.69 32 C308.87 94.25, 308.91 153.26, 309.69 204.02 M309.69 32 C309.23 98.94, 309.92 167.04, 309.69 204.02 M309.69 204.02 C309.76 226.43, 297.85 236.9, 277.69 236.02 M309.69 204.02 C309.95 226.08, 297.48 236.61, 277.69 236.02 M277.69 236.02 C197.23 237.48, 119.69 236.64, 32 236.02 M277.69 236.02 C190.09 235.27, 103.03 234.63, 32 236.02 M32 236.02 C9.95 234.68, -0.2 225.06, 0 204.02 M32 236.02 C11.84 234.54, -0.49 226.63, 0 204.02 M0 204.02 C0.28 148.5, 1 91.35, 0 32 M0 204.02 C-1.04 167.89, -0.32 130.53, 0 32 M0 32 C1.5 11.67, 8.78 1.62, 32 0 M0 32 C-1.17 12.81, 9.71 -0.89, 32 0" stroke="#1e1e1e" stroke-width="2" fill="none"></path></g><g transform="translate(508.10314686391416 10) rotate(0 96.87992858886719 12.5)"><text x="0" y="0" font-family="Virgil, Segoe UI Emoji" font-size="20px" fill="#1e1e1e" text-anchor="start" style="white-space: pre;" direction="ltr" dominant-baseline="text-before-edge">Transform &amp; Batch</text></g><g transform="translate(965.838768320207 139.64317168407564) rotate(0 33.0899658203125 12.5)"><text x="0" y="0" font-family="Virgil, Segoe UI Emoji" font-size="20px" fill="#1e1e1e" text-anchor="start" style="white-space: pre;" direction="ltr" dominant-baseline="text-before-edge">Deliver</text></g><g transform="translate(788.765625 103.36340134755613) rotate(0 72.89995574951172 25)"><text x="0" y="0" font-family="Virgil, Segoe UI Emoji" font-size="20px" fill="#1e1e1e" text-anchor="start" style="white-space: pre;" direction="ltr" dominant-baseline="text-before-edge">Go channel of </text><text x="0" y="25" font-family="Virgil, Segoe UI Emoji" font-size="20px" fill="#1e1e1e" text-anchor="start" style="white-space: pre;" direction="ltr" dominant-baseline="text-before-edge">batches</text></g><g transform="translate(511.8359375 99.23840134755613) rotate(0 85.72993469238281 12.5)"><text x="85.72993469238281" y="0" font-family="Virgil, Segoe UI Emoji" font-size="20px" fill="#1e1e1e" text-anchor="middle" style="white-space: pre;" direction="ltr" dominant-baseline="text-before-edge">journal log entry </text></g><g transform="translate(468.55078125 158.63683884755613) rotate(0 141.0699005126953 12.5)"><text x="141.0699005126953" y="0" font-family="Virgil, Segoe UI Emoji" font-size="20px" fill="#1e1e1e" text-anchor="middle" style="white-space: pre;" direction="ltr" dominant-baseline="text-before-edge">Cloudwatch Log (CWL) Event</text></g><g transform="translate(477.01171875 216.84387009755613) rotate(0 116.12992095947266 12.5)"><text x="116.12992095947266" y="0" font-family="Virgil, Segoe UI Emoji" font-size="20px" fill="#1e1e1e" text-anchor="middle" style="white-space: pre;" direction="ltr" dominant-baseline="text-before-edge">A batch of CWL events</text></g><g stroke-linecap="round"><g transform="translate(588.1939842063739 125.42199509755613) rotate(0 -0.17260566809591182 11.7109375)"><path d="M0.24 0.21 C0.09 4.03, -0.52 19.34, -0.61 23.26 M-0.3 -0.15 C-0.29 3.71, 0.55 20.05, 0.48 23.87" stroke="#1e1e1e" stroke-width="2" fill="none"></path></g><g transform="translate(588.1939842063739 125.42199509755613) rotate(0 -0.17260566809591182 11.7109375)"><path d="M-3.77 12.96 C-2.03 16.44, -0.97 20.51, 0.48 23.87 M-3.77 12.96 C-2.07 16.53, -0.78 20.51, 0.48 23.87" stroke="#1e1e1e" stroke-width="2" fill="none"></path></g><g transform="translate(588.1939842063739 125.42199509755613) rotate(0 -0.17260566809591182 11.7109375)"><path d="M4.24 12.78 C3.21 16.34, 1.5 20.47, 0.48 23.87 M4.24 12.78 C3.12 16.45, 1.6 20.5, 0.48 23.87" stroke="#1e1e1e" stroke-width="2" fill="none"></path></g></g><mask></mask><g stroke-linecap="round"><g transform="translate(593.23828125 185.53527634755613) rotate(0 -0.212890625 14.591796875)"><path d="M-0.12 -0.24 C-0.26 4.6, -0.5 24.11, -0.55 29.04 M0.81 0.82 C0.57 5.75, -0.78 25.08, -1.04 29.67" stroke="#1e1e1e" stroke-width="2" fill="none"></path></g><g transform="translate(593.23828125 185.53527634755613) rotate(0 -0.212890625 14.591796875)"><path d="M-5.14 15.66 C-4.03 20.42, -2.46 25.5, -1.04 29.67 M-5.14 15.66 C-3.93 20.17, -2.47 25.11, -1.04 29.67" stroke="#1e1e1e" stroke-width="2" fill="none"></path></g><g transform="translate(593.23828125 185.53527634755613) rotate(0 -0.212890625 14.591796875)"><path d="M4.82 16.31 C2.43 20.83, 0.51 25.68, -1.04 29.67 M4.82 16.31 C2.74 20.59, 0.91 25.32, -1.04 29.67" stroke="#1e1e1e" stroke-width="2" fill="none"></path></g></g><mask></mask><g stroke-linecap="round"><g transform="translate(253.38671875 170.51902750926837) rotate(0 94.62109375 0.927218318699488)"><path d="M-0.44 0.75 C31.22 1.12, 158.4 2.19, 190.07 2.33 M1.52 0.1 C33.1 0.1, 158.31 0.02, 189.55 0.46" stroke="#1e1e1e" stroke-width="2" fill="none"></path></g><g transform="translate(253.38671875 170.51902750926837) rotate(0 94.62109375 0.927218318699488)"><path d="M161.3 10.56 C171.18 8.95, 179.36 5.02, 189.55 0.46 M161.3 10.56 C169.88 7.37, 176.37 5.75, 189.55 0.46" stroke="#1e1e1e" stroke-width="2" fill="none"></path></g><g transform="translate(253.38671875 170.51902750926837) rotate(0 94.62109375 0.927218318699488)"><path d="M161.42 -9.96 C171.27 -5.3, 179.42 -2.95, 189.55 0.46 M161.42 -9.96 C170.09 -7.45, 176.55 -3.36, 189.55 0.46" stroke="#1e1e1e" stroke-width="2" fill="none"></path></g></g><mask></mask><g stroke-linecap="round"><g transform="translate(774.7589163178627 164.2600039765727) rotate(0 87.98968246606864 -1.5504122613129425)"><path d="M-0.05 0.48 C29.15 0.18, 146.47 -1.88, 175.63 -2.58 M-1.53 -0.31 C27.44 -0.9, 144.7 -4.03, 174.49 -4.43" stroke="#1e1e1e" stroke-width="2" fill="none"></path></g><g transform="translate(774.7589163178627 164.2600039765727) rotate(0 87.98968246606864 -1.5504122613129425)"><path d="M146.52 6.42 C156.84 2.18, 166.34 -2.69, 174.49 -4.43 M146.52 6.42 C154.23 2.86, 160.05 0.5, 174.49 -4.43" stroke="#1e1e1e" stroke-width="2" fill="none"></path></g><g transform="translate(774.7589163178627 164.2600039765727) rotate(0 87.98968246606864 -1.5504122613129425)"><path d="M146.1 -14.1 C156.43 -11.41, 166.07 -9.36, 174.49 -4.43 M146.1 -14.1 C154.05 -12.54, 159.97 -9.77, 174.49 -4.43" stroke="#1e1e1e" stroke-width="2" fill="none"></path></g></g><mask></mask><g transform="translate(10 144.49230759755613) rotate(0 64.65995788574219 25)"><text x="0" y="0" font-family="Virgil, Segoe UI Emoji" font-size="20px" fill="#1e1e1e" text-anchor="start" style="white-space: pre;" direction="ltr" dominant-baseline="text-before-edge">Linux on EC2</text><text x="0" y="25" font-family="Virgil, Segoe UI Emoji" font-size="20px" fill="#1e1e1e" text-anchor="start" style="white-space: pre;" direction="ltr" dominant-baseline="text-before-edge">Journal logs</text></g><g transform="translate(1085.52734375 141.91027634755613) rotate(0 100.98992919921875 12.5)"><text x="0" y="0" font-family="Virgil, Segoe UI Emoji" font-size="20px" fill="#1e1e1e" text-anchor="start" style="white-space: pre;" direction="ltr" dominant-baseline="text-before-edge">AWS Cloudwatch Log</text></g><g stroke-linecap="round"><g transform="translate(1041.265625 156.9681723074529) rotate(0 18.521484375 -0.13746004043528615)"><path d="M0.3 -0.5 C6.65 -0.63, 31.49 -0.71, 37.58 -0.74 M-0.21 0.44 C6.15 0.35, 31.32 -0.16, 37.42 -0.28" stroke="#1e1e1e" stroke-width="2" fill="none"></path></g><g transform="translate(1041.265625 156.9681723074529) rotate(0 18.521484375 -0.13746004043528615)"><path d="M20.14 6.4 C22.86 5.88, 26.47 3.27, 37.42 -0.28 M20.14 6.4 C23.87 4.89, 28.66 3.06, 37.42 -0.28" stroke="#1e1e1e" stroke-width="2" fill="none"></path></g><g transform="translate(1041.265625 156.9681723074529) rotate(0 18.521484375 -0.13746004043528615)"><path d="M19.9 -6.27 C22.68 -4.18, 26.34 -4.19, 37.42 -0.28 M19.9 -6.27 C23.64 -4.82, 28.48 -3.7, 37.42 -0.28" stroke="#1e1e1e" stroke-width="2" fill="none"></path></g></g><mask></mask><g stroke-linecap="round"><g transform="translate(149.35546875 169.62512009755613) rotate(0 16.41015625 -0.1875)"><path d="M-0.34 0.35 C5.12 0.26, 27.52 -0.29, 33.07 -0.43 M0.49 0.06 C5.86 0.04, 27.4 0.24, 32.76 0.25" stroke="#1e1e1e" stroke-width="2" fill="none"></path></g><g transform="translate(149.35546875 169.62512009755613) rotate(0 16.41015625 -0.1875)"><path d="M17.31 5.77 C23.39 4.2, 28.35 2.02, 32.76 0.25 M17.31 5.77 C21.82 4.24, 26.51 2.54, 32.76 0.25" stroke="#1e1e1e" stroke-width="2" fill="none"></path></g><g transform="translate(149.35546875 169.62512009755613) rotate(0 16.41015625 -0.1875)"><path d="M17.37 -5.45 C23.44 -2.99, 28.38 -1.12, 32.76 0.25 M17.37 -5.45 C21.86 -3.78, 26.53 -2.27, 32.76 0.25" stroke="#1e1e1e" stroke-width="2" fill="none"></path></g></g><mask></mask></svg>